<svg xmlns="http://www.w3.org/2000/svg" viewBox="0 0 512 512">
  <defs>
    <linearGradient id="bg" x1="0" y1="0" x2="1" y2="1">
      <stop offset="0" stop-color="#6d5dfc"/>
      <stop offset="1" stop-color="#3b2fd4"/>
    </linearGradient>
    <linearGradient id="arrow" x1="0" y1="1" x2="1" y2="0">
      <stop offset="0" stop-color="#ffffff"/>
      <stop offset="1" stop-color="#c9d6ff"/>
    </linearGradient>
  </defs>
  <rect x="32" y="32" width="448" height="448" rx="104" fill="url(#bg)"/>
  <!-- Marco de imagen -->
  <rect x="120" y="150" width="200" height="200" rx="28" fill="none" stroke="#ffffff" stroke-opacity="0.55" stroke-width="22"/>
  <circle cx="178" cy="212" r="20" fill="#ffffff" fill-opacity="0.85"/>
  <path d="M140 320 L210 250 L260 300 L300 260 L320 280 L320 322 A28 28 0 0 1 292 350 L148 350 A28 28 0 0 1 140 322 Z" fill="#ffffff" fill-opacity="0.85"/>
  <!-- Flecha de escalado -->
  <path d="M300 212 L392 120 M392 120 L392 196 M392 120 L316 120" stroke="url(#arrow)" stroke-width="34" stroke-linecap="round" stroke-linejoin="round" fill="none"/>
  <!-- Destello IA -->
  <path d="M368 300 l14 34 34 14 -34 14 -14 34 -14 -34 -34 -14 34 -14 Z" fill="#ffd76d"/>
</svg>
